# xmcd
#
# Track frame offsets:
#  150
#  10917
#  24768
#  39209
#  57122
#  71245
#  88366
#  103642
#  120060
#  138025
#  158154
#  173340
#  186191
#
# Disc length: 2683 seconds
#
# Revision: 0
# Processed by: cddbd v1.5.1PL0 Copyright (c) Steve Scherf et al.
# Submitted via: Collectorz.com_Music_Collector 6.9
#
DISCID=930a790d
DTITLE=Bonne Musique Zydeco - Keep On Dancin'
DYEAR=2004
DGENRE=Blues - Zydeco/Cajun
TTITLE0=Don't Mess With My Toot Toot
TTITLE1=Tee Toe Hot Step
TTITLE2=Keep On Dancin'
TTITLE3=Something You Got
TTITLE4=Down In Eunice Town
TTITLE5=Je Va's Jamais La Voir Encore
TTITLE6=I'm A Farmer
TTITLE7=When The Saints Go Marching In
TTITLE8=The Back Door
TTITLE9=Woke Up This Morning
TTITLE10=Jambalaya
TTITLE11=They All Asked For You
TTITLE12=Meet The Boys On The Battlefront
EXTD=
EXTT0=
EXTT1=
EXTT2=
EXTT3=
EXTT4=
EXTT5=
EXTT6=
EXTT7=
EXTT8=
EXTT9=
EXTT10=
EXTT11=
EXTT12=
PLAYORDER=
